<?xml version="1.0" encoding="UTF-8" standalone="no"?>
<!-- Created with Inkscape (http://www.inkscape.org/) -->

<svg
   xmlns:dc="http://purl.org/dc/elements/1.1/"
   xmlns:cc="http://creativecommons.org/ns#"
   xmlns:rdf="http://www.w3.org/1999/02/22-rdf-syntax-ns#"
   xmlns:svg="http://www.w3.org/2000/svg"
   xmlns="http://www.w3.org/2000/svg"
   xmlns:sodipodi="http://sodipodi.sourceforge.net/DTD/sodipodi-0.dtd"
   xmlns:inkscape="http://www.inkscape.org/namespaces/inkscape"
   width="744.09448819"
   height="1052.3622047"
   id="svg2"
   version="1.1"
   inkscape:version="0.47 r22583"
   sodipodi:docname="New document 1">
  <defs
     id="defs4">
    <inkscape:perspective
       sodipodi:type="inkscape:persp3d"
       inkscape:vp_x="0 : 526.18109 : 1"
       inkscape:vp_y="0 : 1000 : 0"
       inkscape:vp_z="744.09448 : 526.18109 : 1"
       inkscape:persp3d-origin="372.04724 : 350.78739 : 1"
       id="perspective10" />
  </defs>
  <sodipodi:namedview
     id="base"
     pagecolor="#ffffff"
     bordercolor="#666666"
     borderopacity="1.0"
     inkscape:pageopacity="0.0"
     inkscape:pageshadow="2"
     inkscape:zoom="0.98994949"
     inkscape:cx="375"
     inkscape:cy="543.90968"
     inkscape:document-units="mm"
     inkscape:current-layer="layer1"
     showgrid="true"
     inkscape:window-width="1039"
     inkscape:window-height="719"
     inkscape:window-x="0"
     inkscape:window-y="24"
     inkscape:window-maximized="0">
    <inkscape:grid
       type="xygrid"
       id="grid2826"
       empspacing="5"
       visible="true"
       enabled="true"
       snapvisiblegridlinesonly="true"
       units="mm"
       spacingx="10mm"
       spacingy="10mm" />
  </sodipodi:namedview>
  <metadata
     id="metadata7">
    <rdf:RDF>
      <cc:Work
         rdf:about="">
        <dc:format>image/svg+xml</dc:format>
        <dc:type
           rdf:resource="http://purl.org/dc/dcmitype/StillImage" />
        <dc:title></dc:title>
      </cc:Work>
    </rdf:RDF>
  </metadata>
  <g
     inkscape:label="Layer 1"
     inkscape:groupmode="layer"
     id="layer1">
    <path
       style="fill:none;stroke:#008000;stroke-width:1px;stroke-linecap:butt;stroke-linejoin:miter;stroke-opacity:1"
       d="m 35.433071,1016.9291 35.433071,0 0,-35.43306 35.433068,0 0,35.43306 106.29922,0 0,-35.43306 -70.86615,0 0,-35.43307 106.29922,0 0,70.86613 212.59842,0 0,-35.43306 35.43307,0 0,35.43306 35.43307,0 0,-70.86613 -70.86614,0 0,-35.43307 70.86614,0 0,-70.86614 -35.43307,0 0,35.43307 -141.73228,0 0,106.29921 -70.86614,0 0,-35.43307 35.43307,0 0,-106.29921 70.86614,0 0,-106.29922"
       id="path2828" />
    <path
       style="fill:none;stroke:#008000;stroke-width:1px;stroke-linecap:butt;stroke-linejoin:miter;stroke-opacity:1"
       d="m 213.14219,736.18444 -0.54376,0 0,103.57932 70.86614,0 0,70.86614 -106.29922,0 0,-106.29921 -70.86614,0 0,-70.86615"
       id="path3602" />
    <path
       style="fill:none;stroke:#008000;stroke-width:1px;stroke-linecap:butt;stroke-linejoin:miter;stroke-opacity:1"
       d="m 73.741136,737.19459 -2.874994,0 0,67.1361 -35.433071,0 0,106.29921 35.433071,0 0,-70.86614 70.866138,0 0,70.86614 -35.43307,0 0,35.43307 -70.866139,0 0,70.86613"
       id="path3604" />
    <path
       style="fill:none;stroke:#800000;stroke-width:1px;stroke-linecap:butt;stroke-linejoin:miter;stroke-opacity:1"
       d="m 210.11173,734.16413 0,-0.69959 37.91977,0 0,-70.86614 -70.86615,0 0,35.43307 -70.86614,0 0,35.43307"
       id="path3606" />
    <path
       style="fill:none;stroke:#800000;stroke-width:1px;stroke-linecap:butt;stroke-linejoin:miter;stroke-opacity:1"
       d="m 71.720831,736.18444 -0.854689,0 0,-38.15297 -35.433071,0 0,-106.29921 141.732279,0 0,35.43307 106.29922,0 0,106.29921 35.43307,0 0,-141.73228 -35.43307,0 0,-70.86614 -35.43307,0 0,70.86614 -35.43307,0 0,-35.43307 -70.86615,0 0,-70.86614 35.43307,0 0,35.43307 35.43308,0 0,-35.43307 70.86614,0 0,0 35.43307,0 0,-35.43307 -70.86614,0 0,-70.86614 -35.43307,0 0,70.86614 -106.29922,0 0,35.43307 -70.866139,0 0,-106.29921 70.866139,0 0,35.43307 70.86614,0 0,-70.86614 70.86615,0 0,-70.86615 70.86614,0 0,-35.43307 -35.43307,0 0,-35.43307 70.86614,0 0,70.86614 70.86614,0 0,70.86615 35.43307,0 0,-70.86615 70.86614,0 0,106.29922 -106.29921,0 0,70.86614 -70.86614,0 0,35.43307 106.29921,0 0,-70.86614 248.0315,0 0,248.03149 -248.0315,0 0,-70.86614 -106.29921,0 0,141.73228 29.52726,0 0,0"
       id="path3608" />
    <path
       style="fill:none;stroke:#800000;stroke-width:1px;stroke-linecap:butt;stroke-linejoin:miter;stroke-opacity:1"
       d="m 388.90873,555.36713 178.0204,0 0,71.7982 35.43307,0 0,-70.86614 70.86615,0 0,-35.43307 -70.86615,0 0,-70.86614 -35.43307,0 0,70.86614 -177.16535,0 0,31.47055 -0.85505,3.03046 z"
       id="path3612" />
  </g>
</svg>
