<?xml version="1.0" encoding="UTF-8" standalone="no"?>
<!-- Created with Inkscape (http://www.inkscape.org/) -->

<svg
   xmlns:svg="http://www.w3.org/2000/svg"
   xmlns="http://www.w3.org/2000/svg"
   version="1.1"
   width="39"
   height="36"
   id="svg3635">
  <defs
     id="defs3" />
  <g
     transform="translate(0,-1016.3622)"
     id="layer1">
    <path
       d="m 6.3134534,1046.3013 0,-5.9391 5.6865466,0 0,6 -6,0"
       id="path3647"
       style="fill:none;stroke:#800000;stroke-width:1px;stroke-linecap:butt;stroke-linejoin:miter;stroke-opacity:1" />
    <path
       d="m 3.2829958,1049.0792 0,-17.717 5.7170042,0 0,-3 -3,0 0,-9 9,0 0,3 3,0 0,-3 12,0 0,9 -3,0 0,15 3,0 0,-6 6,0 0,12 -6,0 0,-3 -3,0 0,3 -23.9695424,0 0.2525382,-0.283 z"
       id="path3649"
       style="fill:none;stroke:#800000;stroke-width:1px;stroke-linecap:butt;stroke-linejoin:miter;stroke-opacity:1" />
    <path
       d="m 12.121831,1034.432 0,-6.0698 2.878169,0 0,-3 3,0 0,3 6,0 0,18 -3,0 0,-9 0,0 0,-6 -6,0 0,3 3,0 0,3 -5.878169,0 0,-2.9302 z"
       id="path3653"
       style="fill:none;stroke:#800000;stroke-width:1px;stroke-linecap:butt;stroke-linejoin:miter;stroke-opacity:1" />
  </g>
</svg>
